<?xml version="1.0" standalone="no"?>
<!DOCTYPE svg PUBLIC "-//W3C//DTD SVG 20010904//EN" "http://www.w3.org/TR/2001/REC-SVG-20010904/DTD/svg10.dtd">
<!-- Created using Krita: https://krita.org -->
<svg xmlns="http://www.w3.org/2000/svg" 
    xmlns:xlink="http://www.w3.org/1999/xlink"
    xmlns:krita="http://krita.org/namespaces/svg/krita"
    xmlns:sodipodi="http://sodipodi.sourceforge.net/DTD/sodipodi-0.dtd"
    width="5429pt"
    height="3054pt"
    viewBox="0 0 5429 3054">
<defs>
  <linearGradient id="gradient0" gradientUnits="objectBoundingBox" x1="0.843450400123194" y1="0.847296496121569" x2="0.0675428047808067" y2="0.0392156862745101" spreadMethod="pad">
   <stop stop-color="#060e16" offset="0" stop-opacity="1"/>
   <stop stop-color="#171f2c" offset="1" stop-opacity="1"/>
  </linearGradient>
  <linearGradient id="gradient1" gradientUnits="objectBoundingBox" x1="0.0866108734986578" y1="0.0539474131474799" x2="0.747698759808171" y2="0.976315790885369" spreadMethod="pad">
   <stop stop-color="#171f2c" offset="0" stop-opacity="1"/>
   <stop stop-color="#061018" offset="1" stop-opacity="0"/>
  </linearGradient>
  <linearGradient id="gradient2" gradientUnits="objectBoundingBox" x1="0" y1="0" x2="1" y2="1" spreadMethod="pad">
   <stop stop-color="#171f2c" offset="0" stop-opacity="1"/>
   <stop stop-color="#061018" offset="1" stop-opacity="0"/>
  </linearGradient>
  <linearGradient id="gradient3" gradientUnits="objectBoundingBox" x1="0" y1="0" x2="1" y2="1" spreadMethod="pad">
   <stop stop-color="#171f2c" offset="0" stop-opacity="1"/>
   <stop stop-color="#061018" offset="1" stop-opacity="0"/>
  </linearGradient>
  <linearGradient id="gradient4" gradientUnits="objectBoundingBox" x1="0.798312707783074" y1="0.707409795460753" x2="0.838023508565755" y2="0.849365569160663" spreadMethod="pad">
   <stop stop-color="#b82313" offset="0" stop-opacity="1"/>
   <stop stop-color="#b82313" offset="1" stop-opacity="0"/>
  </linearGradient>
  <linearGradient id="gradient5" gradientUnits="objectBoundingBox" x1="0.348680182276056" y1="0.451748854592485" x2="0.233271923128832" y2="0.405815405806436" spreadMethod="pad">
   <stop stop-color="#9b1c1b" offset="0" stop-opacity="1"/>
   <stop stop-color="#9b1c1b" offset="1" stop-opacity="0"/>
  </linearGradient>
  <linearGradient id="gradient6" gradientUnits="objectBoundingBox" x1="0.297999614101093" y1="0.479949282526046" x2="0.709641413615185" y2="0.896169902068381" spreadMethod="pad">
   <stop stop-color="#faaf5d" offset="0" stop-opacity="1"/>
   <stop stop-color="#997051" offset="1" stop-opacity="1"/>
  </linearGradient>
  <linearGradient id="gradient7" gradientUnits="objectBoundingBox" x1="0.287991420246135" y1="0.443725409571728" x2="0.577612583639037" y2="0.571663910991452" spreadMethod="pad">
   <stop stop-color="#997051" offset="0" stop-opacity="1"/>
   <stop stop-color="#997051" offset="1" stop-opacity="0"/>
  </linearGradient>
  <radialGradient id="gradient8" gradientUnits="objectBoundingBox" cx="-0.298722597505474" cy="1.8281464901976" fx="0.0999841732807611" fy="1.43896212504761" r="2.75285407765149" spreadMethod="pad">
   <stop stop-color="#282e42" offset="0.5" stop-opacity="1"/>
   <stop stop-color="#171f2c" offset="0.508264482021332" stop-opacity="1"/>
  </radialGradient>
 </defs>
<rect id="shape0" transform="matrix(3 0 0 3 -71.9999955660039 -132)" fill="url(#gradient0)" fill-rule="evenodd" stroke-opacity="0" stroke="#000000" stroke-width="0" stroke-linecap="square" stroke-linejoin="bevel" width="1865.9998850856" height="1122"/><path id="shape1" transform="matrix(3 0 0 3 1850.99998627692 -283.137934874892)" fill="url(#gradient1)" fill-rule="evenodd" stroke-opacity="0" stroke="#000000" stroke-width="0" stroke-linecap="square" stroke-linejoin="bevel" d="M0 41.3793C60.6667 125.713 171.333 209.546 332 292.879C573 417.879 548.5 375.379 747.5 489.879C880.167 566.213 1138.33 786.713 1226 891.379L1275 713.379C1205 574.046 926.833 342.546 736.5 278.879C546.167 215.213 428.667 125.046 384 8.37931C478 -9.62069 350 1.37931 0 41.3793Z" sodipodi:nodetypes="czzcczcc"/><path id="shape2" transform="matrix(3 0 0 3 -224.999988415529 -221.99999177307)" fill="url(#gradient2)" fill-rule="evenodd" stroke-opacity="0" stroke="#000000" stroke-width="0" stroke-linecap="square" stroke-linejoin="bevel" d="M1807.5 1110.5C1673.5 849.167 1535 673.333 1392 583C1177.5 447.5 1107 531.5 859.5 437C612 342.5 469.5 321.5 375 224C312 159 169 55 66 0C44 53 22 106 0 159C88 240 242.5 347.5 343.5 393.5C495 462.5 564 582.5 813 608C1062 633.5 1188 590 1386 792.5C1518 927.5 1598.5 1048 1627.5 1154C1627.5 1154 1687.5 1139.5 1807.5 1110.5Z" sodipodi:nodetypes="czzzcczzzcc"/><path id="shape3" transform="matrix(3 0 0 3 -445.499994236729 1079.99999024169)" fill="url(#gradient3)" fill-rule="evenodd" stroke-opacity="0" stroke="#000000" stroke-width="0" stroke-linecap="square" stroke-linejoin="bevel" d="M1480.5 747C1384.5 599 1279 489 1164 417C991.5 309 729 379 559.5 283.5C446.5 219.833 293 125.333 99 0L0 126C133 262 260 352.5 381 397.5C502 442.5 715.5 567 1021.5 771C1021.5 771 1174.5 763 1480.5 747Z" sodipodi:nodetypes="czzcczcc"/><path id="shape01" transform="matrix(3 0 0 3 1364.99999896494 2402.9999973846)" fill="#060e16" fill-rule="evenodd" stroke-opacity="0" stroke="#000000" stroke-width="0" stroke-linecap="square" stroke-linejoin="bevel" d="M3.5 142.5C21.5 168.5 31.6667 190.5 34 208.5C36.3333 226.5 46.6667 249.333 65 277L243.5 271.5L147 117L0 0C0 0 1.16667 47.5 3.5 142.5Z" sodipodi:nodetypes="czccccc"/><path id="shape011" transform="matrix(3 0 0 3 1070.99995724461 827.999946116502)" fill="#060e16" fill-rule="evenodd" stroke-opacity="0" stroke="#000000" stroke-width="0" stroke-linecap="square" stroke-linejoin="bevel" d="M130.125 38.25C111.125 16.75 99.3787 16.4209 95.25 15.125C91.1213 13.8291 82.75 7.5 79.5 0C79.1179 1.9104 79.8928 74.0733 80.1763 114.003C80.2347 122.219 70.5301 124.655 51.0625 121.312C63.6112 142.874 69.5081 155.814 68.7532 160.131C67.9983 164.448 53.5224 180.988 25.3255 209.75C36.4767 211.148 44.8492 213.702 50.4429 217.41C56.0366 221.118 58.3652 226.315 57.4289 233C56.0605 242.214 51.0426 253.297 42.375 266.25C14.7718 307.5 7.75 310.25 0 321.75C2.91667 322.417 8.79167 321.5 17.625 319C26.4583 316.5 34.625 313.708 42.125 310.625C27.0417 341.542 17 369.25 12 393.75C4.5 430.5 0.5 461.25 0.5 481.25C0.5 501.25 0.5 507 1.5 525C2.16667 537 3 542.167 4 540.5L34 503C34.8333 546.333 39.1667 578.083 47 598.25C58.75 628.5 72 660 98 691.25C115.333 712.083 131.792 728.542 147.375 740.625C133.292 709.042 124.417 686.917 120.75 674.25C115.25 655.25 110.5 633.25 109 614C108 601.167 108.167 582.667 109.5 558.5C114.667 585.667 124.917 610.417 140.25 632.75C155.583 655.083 185.333 691.5 229.5 742L260.25 742C257.583 728.5 255 717.5 252.5 709C250 700.5 248.583 694.917 248.25 692.25C252.75 699.875 258.281 707.875 264.844 716.25C271.406 724.625 278.156 733.208 285.094 742L356.5 742L213 401L197.5 124C197.5 124 177.542 73.417 130.125 38.25Z" sodipodi:nodetypes="czccczczczczczzzcczzczzczcczczccccc"/><path id="shape02" transform="matrix(3 0 0 3 2880.74999860919 1357.87500033123)" fill="#b92413" fill-rule="evenodd" stroke-opacity="0" stroke="#000000" stroke-width="0" stroke-linecap="square" stroke-linejoin="bevel" d="M0 103.125L44.8125 100.812C48.4375 94.6042 50.3333 83.4167 50.5 67.25C50.6667 51.0833 46.75 32.5 38.75 11.5L25.8125 0Z" sodipodi:nodetypes="cczccc"/><path id="shape11" transform="matrix(3 0 0 3 1442.10033663063 1524.7190980254)" fill="#dc4400" fill-rule="evenodd" stroke-opacity="0" stroke="#000000" stroke-width="0" stroke-linecap="square" stroke-linejoin="bevel" d="M85.7999 31.5103C150.587 13.7025 199.06 7.43022 231.22 12.6933C279.459 20.5879 300.785 -4.61939 317.675 0.760301C351.425 11.5103 375.05 31.1353 392.3 41.6353C403.8 48.6353 362.55 66.1769 268.55 94.2603L85.5499 190.76C65.4249 200.26 50.5499 208.323 40.9249 214.948C31.2999 221.573 17.6749 235.323 0.049867 256.198C-0.575133 232.198 4.67487 208.198 15.7999 184.198C32.4874 148.198 76.2999 112.073 85.9874 105.073C95.6749 98.0728 59.4874 109.135 51.3624 112.698C45.9457 115.073 31.8415 118.614 9.04987 123.323L43.9249 55.3853C43.9249 55.3853 57.8832 47.4269 85.7999 31.5103Z" sodipodi:nodetypes="czzzcczczzzccc"/><path id="shape21" transform="matrix(3 0 0 3 1681.49992307116 691.874978627258)" fill="#dc4400" fill-rule="evenodd" stroke-opacity="0" stroke="#000000" stroke-width="0" stroke-linecap="square" stroke-linejoin="bevel" d="M225.5 6.75L304.625 0C361.025 74.0245 395.441 122.233 407.875 144.625C420.309 167.017 430.517 191.684 438.5 218.625L384.202 225.237L411.875 290.5C418.34 297.376 427.278 306.105 438.687 316.687C455.802 332.561 468.833 344.042 477.5 352.375C486.167 360.708 503.083 378.625 528.25 406.125L459.75 432.625L405.5 394.375L298 268.875L225.5 170.375L0 129.375L107.5 25.375C107.5 25.375 146.833 19.1667 225.5 6.75Z" sodipodi:nodetypes="cczccczzcccccccc"/><path id="shape31" transform="matrix(3 0 0 3 1359.74994259861 1028.49918479908)" fill="url(#gradient4)" fill-rule="evenodd" stroke-opacity="0" stroke="#000000" stroke-width="0" stroke-linecap="square" stroke-linejoin="bevel" d="M7.8125 144.292C17.1875 132.292 30.5 117.979 47.75 101.354C73.625 76.4169 79.125 73.1669 80.4375 72.1044C81.75 71.0419 53.5984 67.1645 65.3357 57.7741C85.86 41.3538 157.832 10.5355 166.062 7.79194C179 3.47944 222.687 -5.33306 263.937 4.41694C305.187 14.1669 334.812 29.9169 350.187 46.0419C365.562 62.1669 392.75 96.917 388.5 142.917C384.25 188.917 297.75 184.667 287.75 184.167C281.083 183.834 270.583 181.959 256.25 178.542C268 194.125 282.75 206 300.5 214.167C327.125 226.417 372.375 224.917 354.625 246.167C336.875 267.417 308.25 269.667 263.25 240.167C218.25 210.667 209.25 207.417 194.75 201.667C185.083 197.834 163.5 193.75 130 189.417L0 223.667L64.75 138.667C64.75 138.667 45.7708 140.542 7.8125 144.292Z" sodipodi:nodetypes="czcczzzzzczzzzcccc"/><path id="shape4" transform="matrix(3 0 0 3 2019.74999825072 620.249999324309)" fill="#b92413" fill-rule="evenodd" stroke-opacity="0" stroke="#000000" stroke-width="0" stroke-linecap="square" stroke-linejoin="bevel" d="M218.5 208C222.167 182.5 220.833 159.25 214.5 138.25C205 106.75 186 78.25 171.75 58.75C162.25 45.75 152.25 36 141.75 29.5C113.417 19.3333 90.0833 12.1667 71.75 8C53.4167 3.83333 40.4167 1.16667 32.75 0C39.5833 4.5 46.4167 10.0833 53.25 16.75C60.0833 23.4167 65.5833 29.5 69.75 35C58.4167 28.5 47.3333 23.3333 36.5 19.5C25.6667 15.6667 13.5 12.6667 0 10.5L7.5 58C36.8333 56.5 64.25 60.25 89.75 69.25C128 82.75 152.25 97.75 178 126.5C203.75 155.25 208.5 172.25 213 186.25C217.5 200.25 217.5 200.25 218.5 208Z" sodipodi:nodetypes="czzczczczcczzcc"/><path id="shape03" transform="matrix(3 0 0 3 2600.99998803274 2501.99983717823)" fill="#9a1b1a" fill-rule="evenodd" stroke-opacity="0" stroke="#000000" stroke-width="0" stroke-linecap="square" stroke-linejoin="bevel" d="M267 184C255.833 165 240.667 144.75 221.5 123.25C192.75 91 165 70.75 148.25 59.75C131.5 48.75 116.75 41.25 106.25 27C99.25 17.5 83.5 8.5 59 0L0 184C0 185.583 89 185.583 267 184Z" sodipodi:nodetypes="czzzccc"/><path id="shape111" transform="matrix(3 0 0 3 1255.49999539531 1265.99999311716)" fill="#9b1c1b" fill-rule="evenodd" stroke-opacity="0" stroke="#000000" stroke-width="0" stroke-linecap="square" stroke-linejoin="bevel" d="M41.25 65.25C63.4167 49.75 86.5 36.1667 110.5 24.5C134.5 12.8333 158 4.66667 181 0C156.5 26.8333 140.333 43.75 132.5 50.75C124.667 57.75 119.083 63.25 115.75 67.25C118.417 66.75 122 66.6667 126.5 67C131 67.3333 133.75 67.6667 134.75 68C103.583 89.8333 83.9167 104.667 75.75 112.5C67.5833 120.333 59.75 128.417 52.25 136.75C65.9167 133.583 80 129.417 94.5 124.25C116.25 116.5 151.25 103.5 177 102C194.167 101 210.667 99.5833 226.5 97.75C218.333 105.25 207.667 111.833 194.5 117.5C174.75 126 145 142.25 121.5 165.25C105.833 180.583 93.0833 193.667 83.25 204.5C94.0833 197.667 108.25 191 125.75 184.5C143.25 178 163.583 173.333 186.75 170.5C180.583 173.5 174 177 167 181C156.5 187 155.75 189.5 138.75 196.5C121.75 203.5 111.75 207.5 88.5 219.25C65.25 231 39.5 251.25 22.5 270.25C11.1667 282.917 3.66667 293.75 0 302.75C2.5 279.917 6.25 261.583 11.25 247.75C18.75 227 31.5 195.5 54 171.75C69 155.917 79.8333 146.167 86.5 142.5C71.1667 142.333 58.5 143.833 48.5 147C38.5 150.167 27.75 153.833 16.25 158C18.0833 152 22.9167 142.083 30.75 128.25C42.5 107.5 55.125 94.375 64.375 84.5C70.5417 77.9167 78.1667 71.4167 87.25 65C77.4167 63.9167 69 63.5833 62 64C51.5 64.625 51.5 64.625 41.25 65.25Z" sodipodi:nodetypes="czczczczczzczzczczzzzczzczczzccc"/><path id="shape211" transform="matrix(3 0 0 3 2814.4273527782 1166.06249361933)" fill="#9a1b1a" fill-rule="evenodd" stroke-opacity="0" stroke="#000000" stroke-width="0" stroke-linecap="square" stroke-linejoin="bevel" d="M13.045 0C7.54504 8.625 3.48254 21.9375 0.857544 39.9375C-3.07996 66.9375 7.60754 89.0625 11.3575 96.1875C13.8575 100.937 18.545 109.625 25.42 122.25L35.7009 69.17L65.6558 73.1438L61.2325 57.5625C56.6315 53.5846 51.9854 50.7026 47.2942 48.9164C30.5864 45.0555 21.6075 42.5 20.3575 41.25C18.4825 39.375 15.67 27 14.92 16.3125C14.17 5.625 14.17 5.625 13.045 0Z" sodipodi:nodetypes="czzccccczcc"/><path id="shape5" transform="matrix(3 0 0 3 1785.37495763655 1220.6249622934)" fill="url(#gradient5)" fill-rule="evenodd" stroke-opacity="0" stroke="#000000" stroke-width="0" stroke-linecap="square" stroke-linejoin="bevel" d="M248.25 0C258 6.5 267.375 20.25 276.375 41.25C289.875 72.75 289.875 95.625 301.875 118.125C313.875 140.625 337 166.375 364.375 190C382.625 205.75 395.375 217.75 402.625 226L313.875 296.625C296.625 295.375 282.875 285.75 272.625 267.75C257.25 240.75 226.875 218.25 215.25 213C203.625 207.75 158.25 185.625 143.25 184.125C128.25 182.625 117 172.125 105.375 165C93.75 157.875 57.75 136.125 33.75 130.875C17.75 127.375 6.5 124.625 0 122.625L101.125 114.875C107.125 115.542 118.875 122.625 136.375 136.125C162.625 156.375 189.875 159.125 202.875 157.625C215.875 156.125 223.687 152.437 238.875 153.187C249 153.687 254.875 154.687 256.5 156.187C250.875 140.562 244.437 128.437 237.187 119.812C226.312 106.875 237.375 95.375 230.625 71.375C226.125 55.375 218.958 40.875 209.125 27.875C220.125 35.0417 228.792 41.2083 235.125 46.375C241.458 51.5417 246.208 56.2083 249.375 60.375L254.125 33.375C254.125 33.375 252.167 22.25 248.25 0Z" sodipodi:nodetypes="czzzcczzzzzcczzzczzczccc"/><path id="shape04" transform="matrix(3 0 0 3 1334.61151195939 96.1083819468422)" fill="#060e16" fill-rule="evenodd" stroke-opacity="0" stroke="#000000" stroke-width="0" stroke-linecap="square" stroke-linejoin="bevel" d="M273.712 233.797C263.546 212.214 258.067 184.297 225.942 140.547C193.817 96.7973 133.567 45.0264 118.004 29.8389C102.442 14.6514 78.2545 -0.723628 64.7545 0.0263716C51.2545 0.776372 37.7545 25.3389 19.0045 81.4014C0.254486 137.464 0.629486 195.589 0.0669854 204.026C-0.495514 212.464 2.50449 248.089 8.31699 261.401C12.192 270.276 14.942 276.776 16.567 280.901L218.921 288.026C220.796 286.651 235.954 286.398 251.296 271.276C266.637 256.154 269.129 245.901 273.712 233.797Z" sodipodi:nodetypes="czzzzzzcczc"/><path id="shape12" transform="matrix(3 0 0 3 2376.7499307652 131.092500866259)" fill="#060e16" fill-rule="evenodd" stroke-opacity="0" stroke="#000000" stroke-width="0" stroke-linecap="square" stroke-linejoin="bevel" d="M0 185.052C19.6667 192.052 37.25 200.302 52.75 209.802C68.25 219.302 90.75 236.177 112.75 255.177C184.917 198.177 220.75 150.302 227.75 116.802C238.25 66.5525 241 33.5525 240 21.8025C239 10.0525 236.25 2.80249 230.25 0.552498C224.25 -1.69751 206.75 2.80249 185.5 16.3025C164.25 29.8025 108.5 79.5525 99.25 88.5525C90 97.5525 90 97.5525 0 185.052Z" sodipodi:nodetypes="czczzzzcc"/><path id="shape6" transform="matrix(3 0 0 3 1436.62499888623 201.374999780678)" fill="#faaf5d" fill-rule="evenodd" stroke-opacity="0" stroke="#000000" stroke-width="0" stroke-linecap="square" stroke-linejoin="bevel" d="M89.25 277.125C121.897 279.016 144.272 277.891 156.375 273.75C174.53 267.539 200.625 246.875 193.125 214.875C181.875 166.875 151.875 106.875 113.625 59.25C88.125 27.5 63.25 7.75 39 0L0 100.875C0 100.875 29.75 159.625 89.25 277.125Z" sodipodi:nodetypes="czzzccc"/><path id="shape7" transform="matrix(3 0 0 3 2698.97054921427 168.926323774341)" fill="url(#gradient6)" fill-rule="evenodd" stroke-opacity="0" stroke="#000000" stroke-width="0" stroke-linecap="square" stroke-linejoin="bevel" d="M99.3431 240.941C98.0098 242.441 95.3431 244.941 91.3431 248.441C87.3431 251.941 84.0931 253.691 81.5931 253.691C94.4265 225.802 103.843 196.358 109.843 165.358C118.843 118.858 127.343 74.6912 129.343 39.6912C131.343 4.69122 125.406 -0.99628 119.406 0.12872C113.406 1.25372 76.6556 33.6912 65.9681 49.0662C55.2806 64.4412 14.4681 124.816 5.34315 177.316C-0.740183 212.316 -2.7513 234.998 5.34315 242.816C10.7394 248.028 29.4061 268.612 61.3431 304.566C66.9802 303.486 74.6886 296.292 84.4681 282.983C94.2477 269.674 99.206 255.66 99.3431 240.941Z" sodipodi:nodetypes="czczzzzzzczc"/><path id="shape05" transform="matrix(3 0 0 3 1374.44983153259 188.954682498256)" fill="url(#gradient7)" fill-rule="evenodd" stroke-opacity="0" stroke="#000000" stroke-width="0" stroke-linecap="square" stroke-linejoin="bevel" d="M15.4751 288.578C7.03758 269.265 -3.64992 226.89 1.22508 166.89C6.10008 106.89 21.8501 61.0151 29.6001 41.5151C37.3501 22.0151 46.1001 0.515106 53.1001 0.0151056C60.1001 -0.484894 81.1001 11.5151 94.6001 23.0151C108.1 34.5151 140.35 66.0151 154.1 90.0151C163.267 106.015 143.183 137.14 93.8501 183.39L65.3501 229.89C37.7251 281.89 21.1001 301.453 15.4751 288.578Z" sodipodi:nodetypes="czzzzzccc"/><path id="shape06" transform="matrix(3 0 0 3 1374.4498436817 630.608077689157)" fill="#997051" fill-rule="evenodd" stroke-opacity="0" stroke="#000000" stroke-width="0" stroke-linecap="square" stroke-linejoin="bevel" d="M124.287 162.922C117.068 181.57 89.4126 207.672 70.4126 204.547C41.9126 199.86 23.9126 160.672 15.4751 141.36C7.03758 122.047 -3.64992 79.6721 1.22508 19.6721C4.47508 -20.3279 25.8501 0.672201 65.3501 82.6721L134.912 141.36C132.642 143.303 129.101 150.49 124.287 162.922Z" sodipodi:nodetypes="czzzccz"/><path id="shape8" transform="matrix(3 0 0 3 1444.49996816634 302.160829931792)" fill="#441f14" fill-rule="evenodd" stroke-opacity="0" stroke="#000000" stroke-width="0" stroke-linecap="square" stroke-linejoin="bevel" d="M156.75 239.03C143.875 244.405 133.812 249.28 126.562 253.655C119.312 258.03 115.875 260.342 116.25 260.592L124.5 260.405C109.75 271.155 97.4375 278.967 87.5625 283.842C72.75 291.155 58.5 289.842 51 287.217C46 285.467 42.9375 283.842 41.8125 282.342C46.6875 281.342 51.8125 279.405 57.1875 276.53C62.5625 273.655 66.75 270.842 69.75 268.092C49.875 258.342 34.3125 245.03 23.0625 228.155C11.8125 211.28 4.125 194.842 0 178.842C4.25 185.467 8.375 190.842 12.375 194.967C16.375 199.092 20.25 203.155 24 207.155C11.6667 183.738 4.41667 159.28 2.25 133.78C-1 95.5297 10.25 44.2797 19 24.5297C27.75 4.77972 31.5 0.77972 37.75 0.0297202C44 -0.72028 64.875 12.7797 78.625 34.2797C87.7917 48.613 95.5 61.1964 101.75 72.0297C92.6667 65.8631 84.9583 61.4881 78.625 58.9047C72.2917 56.3214 65.7917 54.0714 59.125 52.1547C65.7083 57.1131 73.3125 66.7797 81.9375 81.1547C90.5625 95.5297 100.562 112.717 111.937 132.717C103.187 124.092 93.875 117.592 84 113.217C74.125 108.842 65.9375 106.155 59.4375 105.155C63.1875 115.655 69.9375 127.655 79.6875 141.155C89.4375 154.655 101.5 168.592 115.875 182.967C105.5 178.717 96.8125 175.842 89.8125 174.342C82.8125 172.842 75.6875 170.905 68.4375 168.53C75.3125 182.405 82.5 193.405 90 201.53C101.25 213.717 108 221.967 128.812 230.592C149.625 239.217 149.625 239.217 156.75 239.03Z" sodipodi:nodetypes="czcczzczczczczzzzczczczczczczcc"/><path id="shape9" transform="matrix(3 0 0 3 2768.90544586436 263.502275544383)" fill="#441f14" fill-rule="evenodd" stroke-opacity="0" stroke="#000000" stroke-width="0" stroke-linecap="square" stroke-linejoin="bevel" d="M33.2815 73.6034C44.1565 51.7284 53.5315 35.1659 61.4065 23.9159C73.219 7.0409 81.469 -1.0216 84.844 0.103403C88.219 1.2284 90.6565 12.8534 79.219 65.7284C67.7815 118.603 55.3648 178.249 43.7815 208.249C36.0592 228.249 27.0454 242.013 16.7399 249.541L0 230.359C3.51277 230.81 6.97474 230.056 10.3859 228.097C13.7971 226.138 16.2961 223.535 17.8831 220.287C15.271 221.099 12.6395 220.734 9.98884 219.191C7.33814 217.649 5.75514 215.877 5.23985 213.874C12.6287 213.263 19.5176 208.166 25.9065 198.583C32.2954 188.999 38.5454 176.11 44.6565 159.916C37.2399 166.833 31.5732 171.749 27.6565 174.666C23.7399 177.583 18.7399 179.874 12.6565 181.541C23.7398 168.624 32.8648 154.666 40.0315 139.666C47.1982 124.666 51.1148 113.416 51.7815 105.916C43.1148 111.416 36.5315 116.083 32.0315 119.916C27.5315 123.749 24.4482 126.333 22.7815 127.666C39.4482 99.1659 49.1148 81.8326 51.7815 75.6659C54.4482 69.4992 57.8648 60.6659 62.0315 49.1659C53.0315 55.6659 46.3648 61.3326 42.0315 66.1659C35.5315 73.4159 35.5315 73.4159 33.2815 73.6034Z" sodipodi:nodetypes="czzzzcczczczczczczczccc"/><path id="shape10" transform="matrix(3 0 0 3 2706.18742919213 888.749972545663)" fill="#b82313" fill-rule="evenodd" stroke-opacity="0" stroke="#000000" stroke-width="0" stroke-linecap="square" stroke-linejoin="bevel" d="M100.5 165C99.2778 147.097 93.1597 125.965 82.1458 101.604C71.1319 77.2431 43.75 43.375 0 0C17 17.375 31.625 34.3125 43.875 50.8125C62.25 75.5625 82.5 109.687 89.4375 137.437C96.375 165.187 96.375 165.187 100.5 165Z" sodipodi:nodetypes="czczcc"/><path id="shape13" transform="matrix(3 0 0 3 2676.81247176637 1874.3550629924)" fill="#faaf5d" fill-rule="evenodd" stroke-opacity="0" stroke="#000000" stroke-width="0" stroke-linecap="square" stroke-linejoin="bevel" d="M135.479 27.965C117.479 13.1316 102.062 4.29829 89.2292 1.46495C69.9792 -2.78505 41.9792 1.96495 24.4792 18.965C6.97917 35.965 -3.77083 62.215 1.22917 75.465C4.5625 84.2983 10.6458 94.5483 19.4792 106.215L70.7292 121.715L121.729 118.965L159.229 107.215C160.062 112.548 163.896 113.798 170.729 110.965C180.979 106.715 189.479 98.2149 195.479 84.7149C199.479 75.715 200.812 64.3816 199.479 50.715C199.479 50.715 178.146 43.1316 135.479 27.965Z" sodipodi:nodetypes="czzzcccczzcc"/><path id="shape14" transform="matrix(3 0 0 3 1573.27748723304 1768.46257886389)" fill="#faaf5d" fill-rule="evenodd" stroke-opacity="0" stroke="#000000" stroke-width="0" stroke-linecap="square" stroke-linejoin="bevel" d="M55.5742 329.012C24.2409 298.512 6.24085 266.179 1.57419 232.012C-5.42581 180.762 12.5742 145.012 23.0742 128.762C33.5742 112.512 42.5742 104.762 62.5742 92.5125C75.9075 84.3458 86.6575 78.8458 94.8242 76.0125C70.8242 82.5125 55.2409 86.9291 48.0742 89.2625C40.9075 91.5958 30.1575 96.0125 15.8242 102.512C33.8242 81.5125 51.9075 64.5958 70.0742 51.7625C97.3242 32.5125 149.324 -0.737527 187.324 0.0124733C225.324 0.762473 281.616 17.8458 315.324 38.0125C349.033 58.1791 357.85 92.1407 372.574 91.2625C382.391 90.677 389.516 108.26 393.949 144.012L255.949 122.637L144.199 135.387L62.0742 248.262C62.0742 248.262 59.9075 275.179 55.5742 329.012Z" sodipodi:nodetypes="czzzczczzzzccccc"/><path id="shape15" transform="matrix(3 0 0 3 2631.37486542075 2477.24984964814)" fill="#b82313" fill-rule="evenodd" stroke-opacity="0" stroke="#000000" stroke-width="0" stroke-linecap="square" stroke-linejoin="bevel" d="M89.25 33.375C97 39.875 105.625 46.125 115.125 52.125C129.375 61.125 157.875 79.5 175.5 96C193.125 112.5 219.375 136.25 238.5 164.25C251.25 182.917 259.5 196.667 263.25 205.5L0 213.75L21.375 57.375L51.75 0C51.75 0 64.25 11.125 89.25 33.375Z" sodipodi:nodetypes="czzzccccc"/><path id="shape16" transform="matrix(3 0 0 3 2215.49994435035 2251.49993044952)" fill="#9b1c1b" fill-rule="evenodd" stroke-opacity="0" stroke="#000000" stroke-width="0" stroke-linecap="square" stroke-linejoin="bevel" d="M186 13.5C192.333 38.1667 203 58.5 218 74.5C240.5 98.5 245 101.5 257 108C265 112.333 270.167 114.667 272.5 115C255.25 118.25 239.812 117.312 226.187 112.187C212.562 107.062 202.687 102.25 196.562 97.75C205.437 110.5 211.125 124.75 213.625 140.5C217.375 164.125 215.687 195.25 212.875 209.687C211 219.312 209.25 227 207.625 232.75C202.625 220.625 196.812 208.562 190.187 196.562C183.562 184.562 177.937 176.687 173.312 172.937C175.771 196.479 175.25 218.5 171.75 239C168.25 259.5 161.417 275.417 151.25 286.75L0 284L10.5 91L131.5 0C131.5 0 149.667 4.50001 186 13.5Z" sodipodi:nodetypes="czzczczzczczccccc"/><path id="shape17" transform="matrix(3 0 0 3 1789.87491649393 2139.74987013201)" fill="#1e252f" fill-rule="evenodd" stroke-opacity="0" stroke="#000000" stroke-width="0" stroke-linecap="square" stroke-linejoin="bevel" d="M241.875 16.5L103.125 0L30.75 39.375L0 126.75L53.25 204.375L152.25 253.875L174.75 219.75L164.625 131.625C174.625 155.375 185.125 173.5 196.125 186C212.625 204.75 224.625 216.75 234.375 237C240.875 250.5 246.125 264.125 250.125 277.875C260.375 262.125 267.625 240.625 271.875 213.375C278.25 172.5 273.75 155.25 270.375 136.875C268.125 124.625 266.25 117.625 264.75 115.875C271.667 124.875 280.667 132.125 291.75 137.625C302.833 143.125 311.833 147 318.75 149.25C306 132.75 298.75 118.875 297 107.625C295.25 96.375 294.375 78.875 294.375 55.125C294.375 55.125 276.875 42.25 241.875 16.5Z" sodipodi:nodetypes="cccccccczzczzczczcc"/><path id="shape18" transform="matrix(3 0 0 3 2148.90524023741 2233.18483759167)" fill="#060e16" fill-rule="evenodd" stroke-opacity="0" stroke="#000000" stroke-width="0" stroke-linecap="square" stroke-linejoin="bevel" d="M67.8232 252.355C54.8232 234.855 45.0732 220.605 38.5732 209.605C28.8232 193.105 23.1982 176.98 9.32322 139.855C-4.55178 102.73 -3.05178 58.48 14.5732 34.105C32.1982 9.73001 63.6982 -2.26999 97.0732 0.355008C119.323 2.10501 153.323 8.98001 199.073 20.98C181.323 28.23 164.948 33.105 149.948 35.605C127.448 39.355 103.448 51.355 95.5732 72.73C90.3232 86.98 87.0732 97.23 85.8232 103.48C83.3232 99.98 81.1982 95.355 79.4482 89.605C77.6982 83.855 76.8232 80.1675 76.8233 78.5426C66.0733 94.6676 61.0108 110.855 61.6358 127.105C62.5733 151.48 68.4482 172.855 69.6982 196.855C70.9482 220.855 70.1982 242.605 67.8232 252.355Z" sodipodi:nodetypes="czzzzczzczczcc"/><path id="shape19" transform="matrix(3 0 0 3 3053.24991847166 2840.24991219557)" fill="#dc4400" fill-rule="evenodd" stroke-opacity="0" stroke="#000000" stroke-width="0" stroke-linecap="square" stroke-linejoin="bevel" d="M0 0C11.8333 3.83333 24 9.66667 36.5 17.5C55.25 29.25 75 51 85.25 58.5C92.0833 63.5 99.9167 70.5833 108.75 79.75L42 92.5C41.8333 75.8333 38.25 61 31.25 48C20.75 28.5 12.5 12.75 0 0Z" sodipodi:nodetypes="czzcccc"/><path id="shape20" transform="matrix(3 0 0 3 1730.19662189971 1990.3940497525)" fill="#997051" fill-rule="evenodd" stroke-opacity="0" stroke="#000000" stroke-width="0" stroke-linecap="square" stroke-linejoin="bevel" d="M473.83 79.7853C464.039 93.952 455.476 103.452 448.143 108.285C437.143 115.535 419.643 119.785 395.143 119.41C370.643 119.035 365.643 116.91 339.018 110.535C312.393 104.16 225.393 70.4103 201.393 66.2853C177.393 62.1603 125.768 50.0353 86.5178 74.7853C47.2678 99.5353 35.0178 140.785 37.5178 163.535C40.0178 186.285 43.5178 202.785 52.2678 215.285C58.1011 223.619 61.5178 228.702 62.5178 230.535C60.1845 213.869 61.2678 198.452 65.7678 184.285C72.5178 163.035 80.2678 148.285 89.0178 136.785C94.8511 129.119 99.6845 124.952 103.518 124.285C99.3511 142.785 98.4345 158.619 100.768 171.785C104.268 191.535 114.268 219.785 128.768 236.035C143.268 252.285 163.268 271.535 171.018 282.035C176.184 289.035 179.518 293.869 181.018 296.535C182.684 307.535 183.018 318.452 182.018 329.285C181.018 340.119 179.934 348.535 178.768 354.535L120.518 354.535C76.3511 308.535 51.1011 281.619 44.7678 273.785C35.2678 262.035 9.51777 226.535 4.01777 202.035C-1.48223 177.535 0.0177661 185.535 0.767767 174.535C1.51777 163.535 13.5178 125.535 27.5178 105.285C41.5178 85.0353 48.0178 79.2853 61.7678 69.2853C70.9344 62.6186 82.1844 57.7019 95.5178 54.5353C80.3511 53.2019 66.6844 54.2019 54.5178 57.5353C42.3511 60.8686 25.9344 67.7853 5.26777 78.2853C13.1011 62.2853 22.6844 49.0353 34.0178 38.5353C51.0178 22.7853 81.7678 4.53528 110.268 0.785278C138.768 -2.96472 187.268 7.78528 198.268 10.5353C205.601 12.3686 237.518 25.7019 294.018 50.5353L371.018 81.0353L441.268 79.2853L473.518 74.2853C474.393 74.5353 474.497 76.3686 473.83 79.7853Z" sodipodi:nodetypes="czzzzzzzczzczzzczcczzzzzczczzzccccc"/><path id="shape07" transform="matrix(3 0 0 3 2375.65393127699 1884.43704217339)" fill="#060e16" fill-rule="evenodd" stroke-opacity="0" stroke="#000000" stroke-width="0" stroke-linecap="square" stroke-linejoin="bevel" d="M264.678 0.166799C235.99 3.9168 229.99 15.7293 224.74 22.1043C219.49 28.4793 221.928 44.4168 227.928 52.2918C233.928 60.1668 240.303 67.6668 250.24 73.2918C260.178 78.9168 260.178 88.2918 258.303 93.1668C256.428 98.0418 243.865 110.042 214.428 112.667C184.99 115.292 155.99 116.042 134.553 106.667C113.115 97.2918 101.74 91.6668 93.1153 85.4793C84.4903 79.2918 44.3653 53.2293 20.9278 52.4793C-2.50965 51.7293 -5.50965 57.1668 8.17785 67.6668C21.8653 78.1668 29.3653 73.8543 49.6153 81.1668C69.8653 88.4793 127.803 116.979 158.928 119.979C190.053 122.979 191.365 122.792 210.678 120.729C229.99 118.667 240.865 112.854 249.678 114.542C258.49 116.229 254.178 117.167 257.74 117.167C261.303 117.167 270.678 110.042 267.115 108.917C263.553 107.792 261.49 107.042 261.115 102.917C260.74 98.7918 265.803 90.5418 270.678 86.2293C275.553 81.9168 275.928 85.2918 282.115 80.4168C288.303 75.5418 297.303 63.1668 300.303 57.3543C303.303 51.5418 314.74 29.9793 307.99 18.7293C301.24 7.4793 295.24 -1.3332 264.678 0.166799Z" sodipodi:nodetypes="czzzzzzzzzzzzzzzzzzzcc"/><path id="shape110" transform="matrix(3 0 0 3 3076.85775808409 1885.36506007402)" fill="#1e252f" fill-rule="evenodd" stroke-opacity="0" stroke="#000000" stroke-width="0" stroke-linecap="square" stroke-linejoin="bevel" d="M57.7557 34.6699C52.6724 51.6699 48.2557 62.7533 44.5057 67.9199C38.8807 75.6699 34.2557 79.0449 31.5057 77.0449C28.7557 75.0449 39.6307 58.4199 39.7557 50.9199C39.8807 43.4199 31.7557 41.9199 22.7557 42.7949C13.7557 43.6699 7.8807 42.5449 3.6307 32.5449C-0.619306 22.5449 -0.994306 16.6699 1.7557 11.7949C4.5057 6.91994 18.2557 1.54494 27.1307 0.419942C36.0057 -0.705058 50.8807 0.419942 59.0057 3.91994C67.1307 7.41994 71.7557 15.7949 73.0057 18.9199C74.2557 22.0449 76.3807 29.7949 71.7557 41.7949C67.1307 53.7949 53.6307 71.9199 51.6307 72.6699C49.6307 73.4199 50.3807 71.6699 53.6307 61.7949C56.8807 51.9199 60.5057 33.5449 57.7557 34.6699Z" sodipodi:nodetypes="czzzzzzzzzzzcc"/><path id="shape22" transform="matrix(3 0 0 3 3149.85894697613 1942.59363209769)" fill="#5e4844" fill-rule="evenodd" stroke-opacity="0" stroke="#000000" stroke-width="0" stroke-linecap="square" stroke-linejoin="bevel" d="M48.422 0C49.1095 0.4375 49.6407 1.78125 50.0157 4.03125C50.3907 6.28125 50.547 7.90625 50.4845 8.90625C39.2345 10.6562 29.422 11.625 21.047 11.8125C8.48446 12.0937 0.890712 11.625 0.0469621 9.375C-0.796788 7.125 9.89071 2.25 19.0782 1.125C28.2657 0 28.2657 0 48.422 0Z" sodipodi:nodetypes="czczzcc"/><path id="shape08" transform="matrix(3 0 0 3 2065.49989976389 1124.21354919322)" fill="#060e16" fill-rule="evenodd" stroke-opacity="0" stroke="#000000" stroke-width="0" stroke-linecap="square" stroke-linejoin="bevel" d="M0 3.26212C25 2.01212 46.25 4.51212 63.75 10.7621C81.25 17.0121 104.187 35.1371 132.562 65.1371C131.437 58.2621 126.125 50.0121 116.625 40.3871C102.375 25.9496 80.8125 11.6996 63.5625 5.88712C46.3125 0.0746276 17.25 -2.55038 0 3.26212Z" sodipodi:nodetypes="czczcc"/><path id="shape112" transform="matrix(3 0 0 3 2425.49987791406 1083.37493424566)" fill="#060e16" fill-rule="evenodd" stroke-opacity="0" stroke="#000000" stroke-width="0" stroke-linecap="square" stroke-linejoin="bevel" d="M0 0C19 22.75 30.8125 42.6875 35.4375 59.8125C40.0625 76.9375 40.3125 91.875 36.1875 104.625C40.4375 102.375 42.4375 91.3125 42.1875 71.4375C41.8125 41.625 14.25 9.75 0 0Z" sodipodi:nodetypes="czccc"/><path id="shape23" transform="matrix(3 0 0 3 2888.9044789342 1189.12499870465)" fill="#060e16" fill-rule="evenodd" stroke-opacity="0" stroke="#000000" stroke-width="0" stroke-linecap="square" stroke-linejoin="bevel" d="M0.0318396 67.875C-0.34316 60.625 2.59434 52.375 8.84434 43.125C18.2193 29.25 38.0943 16.3125 59.4693 8.25C73.7193 2.875 84.9068 0.125 93.0318 0C62.7818 6.75 41.4693 16.25 29.0943 28.5C10.5318 46.875 9.59434 48.375 0.0318396 67.875Z" sodipodi:nodetypes="czzccc"/><path id="shape32" transform="matrix(3 0 0 3 2868.16991909993 1040.06249886702)" fill="#060e16" fill-rule="evenodd" stroke-opacity="0" stroke="#000000" stroke-width="0" stroke-linecap="square" stroke-linejoin="bevel" d="M5.63086 109.312C1.75586 105.187 -0.119141 99.5625 0.00585941 92.4375C0.193359 81.75 11.6309 63.5625 26.2559 46.875C36.0059 35.75 53.8809 20.125 79.8809 0C37.7559 38.5 14.0684 64.875 8.81836 79.125C0.943359 100.5 4.78711 100.687 5.63086 109.312Z" sodipodi:nodetypes="czzccc"/><path id="shape41" transform="matrix(3 0 0 3 2027.99999824183 1930.0290665907)" fill="#060e16" fill-rule="evenodd" stroke-opacity="0" stroke="#000000" stroke-width="0" stroke-linecap="square" stroke-linejoin="bevel" d="M0 9.15698C31.8333 5.49031 57.9167 3.90698 78.25 4.40698C108.75 5.15698 212.625 20.532 233.125 26.657C253.625 32.782 256.125 26.032 235 21.657C213.875 17.282 132.5 2.03196 101.875 0.531957C71.25 -0.968043 28.9375 0.344476 0 9.15698Z" sodipodi:nodetypes="czzzcc"/><path id="shape51" transform="matrix(3 0 0 3 2027.99999824183 2038.7695967367)" fill="#060e16" fill-rule="evenodd" stroke-opacity="0" stroke="#000000" stroke-width="0" stroke-linecap="square" stroke-linejoin="bevel" d="M0 19.9101C45 10.4101 84.6667 5.5768 119 5.41013C170.5 5.16013 224.75 13.1601 241.5 14.6601C258.25 16.1601 256 10.6601 238.75 9.41013C221.5 8.16013 173.75 -1.33987 114.5 0.160133C55.25 1.66013 15.5 12.9101 0 19.9101Z" sodipodi:nodetypes="czzzcc"/><path id="shape61" transform="matrix(3 0 0 3 2211.18749804229 2121.30030446493)" fill="#060e16" fill-rule="evenodd" stroke-opacity="0" stroke="#000000" stroke-width="0" stroke-linecap="square" stroke-linejoin="bevel" d="M0 19.8374C37.875 11.9624 70.0625 7.4624 96.5625 6.3374C136.312 4.6499 176.25 6.1499 186.937 6.5249C197.625 6.8999 195.937 6.8999 195.937 4.8374C195.937 2.7749 185.062 2.5874 160.5 1.0874C135.937 -0.412601 116.437 -0.787601 83.25 2.7749C50.0625 6.3374 14.25 12.1499 0 19.8374Z" sodipodi:nodetypes="czzzzcc"/><path id="shape71" transform="matrix(3 0 0 3 3316.49982383579 1914.1367067189)" fill="#2b2d36" fill-rule="evenodd" stroke-opacity="0" stroke="#000000" stroke-width="0" stroke-linecap="square" stroke-linejoin="bevel" d="M0 12.7044C12.0833 6.53772 25.4167 3.20439 40 2.70439C54.5833 2.20439 68.4167 3.53773 81.5 6.70439C69.9167 1.45439 56.9583 -0.712275 42.625 0.204392C21.125 1.57939 10.625 5.82939 0 12.7044Z" sodipodi:nodetypes="czccc"/><path id="shape81" transform="matrix(3 0 0 3 3319.12482367647 2014.5727970478)" fill="#2b2d36" fill-rule="evenodd" stroke-opacity="0" stroke="#000000" stroke-width="0" stroke-linecap="square" stroke-linejoin="bevel" d="M0 0.850695C13.25 1.3507 26.2083 3.3507 38.875 6.8507C51.5417 10.3507 63.125 15.5174 73.625 22.3507C62.2083 13.8507 50.75 8.14236 39.25 5.2257C11.75 -2.2743 5.125 0.350695 0 0.850695Z" sodipodi:nodetypes="ccccc"/><path id="shape91" transform="matrix(3 0 0 3 3296.99982501932 2101.12487247441)" fill="#2b2d36" fill-rule="evenodd" stroke-opacity="0" stroke="#000000" stroke-width="0" stroke-linecap="square" stroke-linejoin="bevel" d="M0 0C12.75 2 24.75 6.54167 36 13.625C47.25 20.7083 56.3333 29.2083 63.25 39.125C51.75 26.875 41.5417 18.6667 32.625 14.5C19.25 8.25 19.25 8.25 0 0Z" sodipodi:nodetypes="czccc"/><ellipse id="shape101" transform="matrix(2.94728908806735 0.559899126056755 -0.559899126056755 2.94728908806735 2816.24955695683 2007.10504299846)" rx="5.5" ry="3.5" cx="5.5" cy="3.5" fill="#060e16" fill-rule="evenodd" stroke-opacity="0" stroke="#000000" stroke-width="0" stroke-linecap="square" stroke-linejoin="bevel"/><ellipse id="shape113" transform="matrix(3 0 0 3 2895 2031)" rx="3.5" ry="2.5" cx="3.5" cy="2.5" fill="#060e16" fill-rule="evenodd" stroke-opacity="0" stroke="#000000" stroke-width="0" stroke-linecap="square" stroke-linejoin="bevel"/><ellipse id="shape121" transform="matrix(3 0 0 3 2832 2085)" rx="4.5" ry="3" cx="4.5" cy="3" fill="#060e16" fill-rule="evenodd" stroke-opacity="0" stroke="#000000" stroke-width="0" stroke-linecap="square" stroke-linejoin="bevel"/><ellipse id="shape131" transform="matrix(3 0 0 3 2850 2154)" rx="4.5" ry="3.5" cx="4.5" cy="3.5" fill="#060e16" fill-rule="evenodd" stroke-opacity="0" stroke="#000000" stroke-width="0" stroke-linecap="square" stroke-linejoin="bevel"/><ellipse id="shape141" transform="matrix(3 0 0 3 2910 2094)" rx="4" ry="2.5" cx="4" cy="2.5" fill="#060e16" fill-rule="evenodd" stroke-opacity="0" stroke="#000000" stroke-width="0" stroke-linecap="square" stroke-linejoin="bevel"/><path id="shape09" transform="matrix(3 0 0 3 1787.99999850388 1370.19392456502)" fill="#060e16" fill-rule="evenodd" stroke-opacity="0" stroke="#000000" stroke-width="0" stroke-linecap="square" stroke-linejoin="bevel" d="M0 67.5187C33.5416 66.2687 61.5 58.8937 83.875 45.3937C117.437 25.1437 127.187 16.3312 145.187 7.33117C163.187 -1.66883 181.562 -0.918835 195.25 1.89367C208.937 4.70617 223.562 14.8936 235 33.5812C246.437 52.2687 253.375 66.7687 264.062 80.2687C271.187 89.2687 275.875 94.7062 278.125 96.5812L235.187 73.7062C227.312 69.5812 220.812 67.8312 215.687 68.4562C208 69.3937 205.75 73.8937 188.687 73.7062C171.625 73.5187 154.562 64.9562 142.094 52.2687C129.625 39.5812 125.5 39.7687 120.156 40.1437C114.812 40.5187 102.25 44.5187 85.5625 52.2687C68.875 60.0187 31.625 71.2687 0 67.5187Z" sodipodi:nodetypes="czzzzzcczzzzcc"/><path id="shape114" transform="matrix(3 0 0 3 2874.23150250354 1361.40869085032)" fill="#060e16" fill-rule="evenodd" stroke-opacity="0" stroke="#000000" stroke-width="0" stroke-linecap="square" stroke-linejoin="bevel" d="M16.5478 69.8846C4.92282 59.3846 -0.577168 47.8534 0.0478317 35.2909C0.985332 16.4471 3.42283 13.6971 15.0478 4.07212C22.7978 -2.34455 33.0062 -1.17788 45.6728 7.57212L42.5478 12.9471C40.2978 9.78045 38.3395 8.07212 36.6728 7.82212C35.0062 7.57212 33.1728 7.61378 31.1728 7.94712C34.4228 13.1138 35.9228 20.9471 35.6728 31.4471C35.2978 47.1971 30.9227 62.8221 16.5478 69.8846Z" sodipodi:nodetypes="czzcczccc"/><path id="shape010" transform="matrix(3 0 0 3 2221.49999803191 1429.81499826078)" fill="url(#gradient8)" fill-rule="evenodd" stroke-opacity="0" stroke="#000000" stroke-width="0" stroke-linecap="square" stroke-linejoin="bevel" d="M23.375 0.0200001C19.7917 -0.146667 15.375 0.728333 10.125 2.645C4.875 4.56167 1.5 6.56167 0 8.645C1.08333 25.895 9.41667 38.3533 25 46.02C48.375 57.52 64.125 41.645 67.25 35.02C69.3333 30.6033 69.7917 25.6867 68.625 20.27C67.2083 18.27 65.4583 16.645 63.375 15.395C61.2917 14.145 59.5417 13.27 58.125 12.77C58.875 20.6033 57.125 27.145 52.875 32.395C46.5 40.27 34.625 42.895 27.375 32.395C20.125 21.895 20.25 10.395 23.375 0.0200001Z" sodipodi:nodetypes="czczzczczcc"/><path id="shape115" transform="matrix(3 0 0 3 2908.12492295359 1468.16583746091)" fill="#171f2c" fill-rule="evenodd" stroke-opacity="0" stroke="#000000" stroke-width="0" stroke-linecap="square" stroke-linejoin="bevel" d="M0 24.6426L4.59375 31.3926C9.03125 28.9968 12.4687 25.0697 14.9062 19.6114C17.3437 14.153 18.7083 9.24158 19 4.877C17.8415 3.20304 16.2079 1.92151 14.0993 1.0324C12.6936 0.439666 10.9097 0.0955309 8.74768 0C8.87423 1.11591 8.77083 3.92387 8.4375 8.42387C7.9375 15.1739 6.8125 16.4864 5.375 19.6114C1.75 23.3614 1.75 23.3614 0 24.6426Z" sodipodi:nodetypes="cczczczcc"/><ellipse id="shape012" transform="matrix(2.81119537401387 -1.04746387485348 1.04746387485348 2.81119537401387 2350.27541719195 1432.38453094326)" rx="4" ry="5.5" cx="4" cy="5.5" fill="#ffffd0" fill-rule="evenodd" stroke-opacity="0" stroke="#000000" stroke-width="0" stroke-linecap="square" stroke-linejoin="bevel"/><ellipse id="shape116" transform="matrix(2.84765767299783 -0.943846267893566 0.943846267893566 2.84765767299783 2920.71977209463 1419.48158444398)" rx="3.65622437785987" ry="5.12501431607919" cx="3.65622437785987" cy="5.12501431607919" fill="#ffffd0" fill-rule="evenodd" stroke-opacity="0" stroke="#000000" stroke-width="0" stroke-linecap="square" stroke-linejoin="bevel"/>
</svg>
