<?xml version="1.0" standalone="no"?>
<!DOCTYPE svg PUBLIC "-//W3C//DTD SVG 20010904//EN" "http://www.w3.org/TR/2001/REC-SVG-20010904/DTD/svg10.dtd">
<!-- Created using Krita: https://krita.org -->
<svg xmlns="http://www.w3.org/2000/svg" 
    xmlns:xlink="http://www.w3.org/1999/xlink"
    xmlns:krita="http://krita.org/namespaces/svg/krita"
    xmlns:sodipodi="http://sodipodi.sourceforge.net/DTD/sodipodi-0.dtd"
    width="576pt"
    height="576pt"
    viewBox="0 0 576 576">
<defs/>
<path id="shape0" transform="matrix(24 0 0 24 64.69632 172.68168)" fill="#ffffff" fill-rule="evenodd" stroke-opacity="0" stroke="#000000" stroke-width="0" stroke-linecap="square" stroke-linejoin="bevel" d="M9.38002 0L0.85255 0C0.38171 0 0 0.3817 0 0.85255L0 9.38003C0 9.85083 0.3817 10.2325 0.85255 10.2325L9.38002 10.2325C9.85082 10.2325 10.2325 9.85083 10.2325 9.38003L10.2325 0.85255C10.2325 0.3817 9.85082 0 9.38002 0ZM2.80432 3.48083L4.55432 3.48083L4.55432 7.98083L5.55432 7.98083L5.55432 3.48083L7.30432 3.48083L7.30432 2.48083L2.80432 2.48083Z" sodipodi:nodetypes="cccccccccccccccccc"/><path id="shape1" transform="matrix(24 0 0 24 208.68 239.65728)" fill="#ffffff" stroke-opacity="0" stroke="#000000" stroke-width="0" stroke-linecap="square" stroke-linejoin="bevel" d="M0 8.44188L3.3805 8.44188C4.4037 8.44188 5.2331 7.61248 5.2331 6.58938L5.2331 0L8.9621 0C9.4443 0.01193 9.8258 0.41218 9.8146 0.89438L9.8146 6.26138C9.882 9.15548 7.5923 11.5571 4.6984 11.6279C2.5781 11.576 0.78223 10.2731 0 8.44188Z" sodipodi:nodetypes="ccccccccc"/><path id="shape2" transform="matrix(24 0 0 24 433.0704 116.86824)" fill="#ffffff" stroke-opacity="0" stroke="#000000" stroke-width="0" stroke-linecap="square" stroke-linejoin="bevel" d="M2.093 4.18604C3.2489 4.18604 4.186 3.24897 4.186 2.09302C4.186 0.93708 3.2489 0 2.093 0C0.937 0 0 0.93708 0 2.09302C0 3.24897 0.937 4.18604 2.093 4.18604Z" sodipodi:nodetypes="ccccc"/><path id="shape3" transform="matrix(24 0 0 24 456.516 239.65728)" fill="#ffffff" stroke-opacity="0" stroke="#000000" stroke-width="0" stroke-linecap="square" stroke-linejoin="bevel" d="M0 8.81148C0.1346 8.82848 0.2717 8.83718 0.411 8.83718L0.4263 8.83718C2.2201 8.83718 3.6742 7.38308 3.6742 5.58928L3.6742 0.88368C3.6742 0.39568 3.2786 0 2.7905 0L0.2724 0C0.4149 0.26968 0.4934 0.57788 0.4881 0.90388L0.4881 6.25028C0.5076 7.15828 0.3321 8.02538 0 8.81148Z" sodipodi:nodetypes="cccccccccc"/><path id="shape4" transform="matrix(24 0 0 24 254.46 72)" fill="#ffffff" stroke-opacity="0" stroke="#000000" stroke-width="0" stroke-linecap="square" stroke-linejoin="bevel" d="M3.3256 6.03159C4.8534 5.87992 6.0466 4.59093 6.0466 3.02326C6.0466 1.35356 4.693 0 3.0233 0C1.3536 0 0 1.35356 0 3.02326C0 3.08092 0.0017 3.1382 0.0048 3.19507L1.473 3.19507C2.4962 3.19507 3.3256 4.0245 3.3256 5.04762Z" sodipodi:nodetypes="cccccccc"/>
</svg>
